<?xml version="1.0" encoding="utf-8"?>
<!-- Generator: Adobe Illustrator 16.0.0, SVG Export Plug-In . SVG Version: 6.00 Build 0)  -->
<!DOCTYPE svg PUBLIC "-//W3C//DTD SVG 1.1//EN" "http://www.w3.org/Graphics/SVG/1.1/DTD/svg11.dtd">
<svg version="1.1" id="Layer_1" xmlns="http://www.w3.org/2000/svg" xmlns:xlink="http://www.w3.org/1999/xlink" x="0px" y="0px"
	 width="595.279px" height="841.891px" viewBox="0 0 595.279 841.891" enable-background="new 0 0 595.279 841.891"
	 xml:space="preserve">
<path fill-opacity="0" stroke="#000000" stroke-width="0.24" d="M185.9,841.891L0,666.29h185.9L0,841.891l25.769-57.501v26.449
	l9.598,9.747v-9.747V784.39h9.597h9.598v13.223v13.227l-9.959,9.597l9.959,9.596h9.597h9.598h9.598h9.597h9.598h9.597h9.598h9.598
	h9.596h9.598h9.596v-9.596h-9.596h-9.598h-9.596h-9.598h-9.598h-9.597H92.95h-9.597h-9.598h-9.598H54.41l9.748-9.597h9.598h9.598
	h9.597h9.598h9.597h9.598h9.598h9.596h9.598h9.596V784.39h-9.596h-9.598h-9.596h-9.598h-9.598h-9.597H92.95h-9.597h-9.598h-9.598
	l-38.389-57.585h9.598h9.597h9.598h9.597h9.598h9.598h9.597h9.598h9.597h9.598h9.598h9.596h9.598h9.596v-26.449h-9.596h-9.598
	h-9.596h-9.598h-9.598h-9.597H92.95h-9.597h-9.598h-9.749h-9.446l-9.598,0.109l-9.597,0.055l-9.598-0.164v-19.192h9.598h19.194
	h9.597h9.598h9.598h9.597h9.598h9.597h9.598h9.598h9.596v9.597h-9.596h-9.598h-9.598h-9.597H92.95h-9.597h-9.598h-9.598
	L185.9,841.891L0,666.29h185.9L0,841.891l25.769-57.501v26.449l9.598,9.747v-9.747V784.39h9.597h9.598v13.223v13.227l-9.959,9.597
	l9.959,9.596h9.597h9.598h9.598h9.597h9.598h9.597h9.598h9.598h9.596h9.598h9.596v-9.596h-9.596h-9.598h-9.596h-9.598h-9.598h-9.597
	H92.95h-9.597h-9.598h-9.598H54.41l9.748-9.597h9.598h9.598h9.597h9.598h9.597h9.598h9.598h9.596h9.598h9.596V784.39h-9.596h-9.598
	h-9.596h-9.598h-9.598h-9.597H92.95h-9.597h-9.598h-9.598l-38.389-57.585h9.598h9.597h9.598h9.597h9.598h9.598h9.597h9.598h9.597
	h9.598h9.598h9.596h9.598h9.596v-26.449h-9.596h-9.598h-9.596h-9.598h-9.598h-9.597H92.95h-9.597h-9.598h-9.749h-9.446l-9.598,0.109
	l-9.597,0.055l-9.598-0.164v-19.192h9.598h19.194h9.597h9.598h9.598h9.597h9.598h9.597h9.598h9.598h9.596v9.597h-9.596h-9.598
	h-9.598h-9.597H92.95h-9.597h-9.598h-9.598L185.9,841.891z"/>
</svg>
